<?xml version="1.0" encoding="UTF-8" standalone="no"?>
<svg
   xmlns:dc="http://purl.org/dc/elements/1.1/"
   xmlns:cc="http://creativecommons.org/ns#"
   xmlns:rdf="http://www.w3.org/1999/02/22-rdf-syntax-ns#"
   xmlns:svg="http://www.w3.org/2000/svg"
   xmlns="http://www.w3.org/2000/svg"
   viewBox="0 0 451.54666 52.026669"
   height="52.026669"
   width="451.54666"
   xml:space="preserve"
   version="1.1"
   id="svg2"><metadata
     id="metadata8"><rdf:RDF><cc:Work
         rdf:about=""><dc:format>image/svg+xml</dc:format><dc:type
           rdf:resource="http://purl.org/dc/dcmitype/StillImage" /></cc:Work></rdf:RDF></metadata><defs
     id="defs6"><clipPath
       id="clipPath18"
       clipPathUnits="userSpaceOnUse"><path
         id="path20"
         d="m 0,0 3386.63,0 0,390 L 0,390 0,0 Z" /></clipPath></defs><g
     transform="matrix(1.3333333,0,0,-1.3333333,0,52.026667)"
     id="g10"><g
       transform="scale(0.1)"
       id="g12"><g
         id="g14"><g
           clip-path="url(#clipPath18)"
           id="g16"><path
             id="path22"
             style="fill:#aeacac;fill-opacity:1;fill-rule:nonzero;stroke:none"
             d="m 1392.35,278.375 c -12.36,-3.457 -23.52,-8.672 -33.22,-15.547 -9.77,-6.992 -17.74,-15.84 -23.66,-26.484 -6.01,-10.723 -9.06,-23.36 -9.06,-37.625 0,-13.164 2.42,-24.414 7.15,-33.399 4.63,-8.984 10.96,-16.523 18.79,-22.382 7.56,-5.704 16.42,-10.391 26.39,-13.829 9.7,-3.398 20.05,-6.367 30.82,-8.98 0.13,-0.082 19.1,-4.223 19.1,-4.223 6.97,-1.601 13.67,-3.75 19.82,-6.445 5.98,-2.578 11.15,-6.141 15.41,-10.5157 4.01,-4.1406 5.88,-9.2578 5.88,-15.7422 0,-4.7656 -1.29,-8.8672 -3.98,-12.5 -2.78,-3.789 -6.47,-7.0312 -10.96,-9.5312 -4.67,-2.5781 -10.08,-4.4922 -16.11,-5.7422 -6.22,-1.1719 -12.37,-1.8359 -18.4,-1.8359 -13.62,0 -25.22,3.0078 -34.57,8.8671 -9.71,6.0938 -18.6,13.2032 -26.49,21.0938 l -2.4,2.4219 -43.03,-35.4688 2.11,-2.8516 c 13.3,-18.0859 28.64,-30.7421 45.63,-37.539 C 1378.4,3.39844 1398.19,0 1420.32,0 c 13.1,0 26.35,1.52344 39.31,4.45312 13.13,3.08594 25.02,8.08598 35.28,14.99998 10.29,6.9531 18.81,16.0157 25.35,26.9922 6.56,11.1719 9.88,24.5703 9.88,40 0,12.6563 -2.05,23.6407 -6.19,32.6247 -4.06,9.024 -9.73,16.723 -16.95,22.973 -7.11,6.168 -15.67,11.25 -25.41,15.074 -9.57,3.75 -19.91,6.953 -30.63,9.61 -0.19,0.039 -20.12,3.867 -20.12,3.867 -7.4,1.41 -14.51,3.594 -21.09,6.484 -6.39,2.734 -11.97,6.445 -16.6,10.899 -4.22,4.101 -6.35,9.375 -6.35,16.238 0,8.183 3.65,14.336 11.17,18.613 8.09,4.668 17.82,7.051 28.89,7.051 11.86,0 21.93,-2.383 30,-7.051 8.24,-4.707 15.25,-10.605 20.82,-17.617 l 2.25,-2.824 44.45,33.566 -1.82,2.93 c -10,16.035 -23.65,27.558 -40.56,34.453 -16.62,6.758 -34.2,10.176 -52.35,10.176 -12.48,0 -25.02,-1.758 -37.3,-5.137" /><path
             id="path24"
             style="fill:#aeacac;fill-opacity:1;fill-rule:nonzero;stroke:none"
             d="m 1770.76,105.938 c -3.87,-10.7427 -9.38,-20.0786 -16.37,-27.6177 -7.07,-7.5781 -15.78,-13.6328 -25.94,-18.0469 -10.23,-4.414 -21.87,-6.6796 -34.61,-6.6796 -12.74,0 -24.4,2.2656 -34.6,6.6796 -10.23,4.4141 -18.92,10.4688 -25.9,18.0469 -7.05,7.5391 -12.59,16.875 -16.46,27.6177 -3.93,10.867 -5.88,22.898 -5.88,35.789 0,12.89 1.95,24.921 5.88,35.742 3.87,10.785 9.41,20.16 16.46,27.664 6.94,7.578 15.67,13.613 25.9,18.105 10.22,4.395 21.86,6.641 34.6,6.641 12.7,0 24.34,-2.246 34.61,-6.641 10.16,-4.492 18.87,-10.527 25.94,-18.105 6.99,-7.504 12.5,-16.879 16.37,-27.664 3.94,-10.86 5.93,-22.891 5.93,-35.742 0,-12.848 -1.99,-24.883 -5.93,-35.789 z m 55.15,91.023 c -7.34,16.98 -17.58,32.156 -30.35,44.969 -12.89,12.871 -28.12,23.125 -45.51,30.468 -17.38,7.325 -36.29,11.114 -56.21,11.114 -19.97,0 -38.89,-3.789 -56.28,-11.114 -17.34,-7.343 -32.63,-17.597 -45.5,-30.468 -12.78,-12.813 -23.03,-27.989 -30.34,-44.969 -7.38,-16.992 -11.13,-35.543 -11.13,-55.234 0,-19.649 3.75,-38.368 11.13,-55.5161 7.31,-17.1875 17.52,-32.3047 30.41,-44.9609 12.84,-12.6562 28.11,-22.8516 45.43,-30.1562 C 1654.87,3.67188 1673.87,0 1693.84,0 c 19.92,0 38.91,3.67188 56.21,11.0938 17.35,7.3046 32.62,17.5 45.51,30.1562 12.77,12.6562 23.05,27.7734 30.39,44.9609 7.38,17.2271 11.1,35.9061 11.1,55.5161 0,19.652 -3.72,38.242 -11.14,55.234" /><path
             id="path26"
             style="fill:#aeacac;fill-opacity:1;fill-rule:nonzero;stroke:none"
             d="m 1930.8,350.758 -53.83,0 0,-344.07831 57.5,0 0,344.07831 -3.67,0" /><path
             id="path28"
             style="fill:#aeacac;fill-opacity:1;fill-rule:nonzero;stroke:none"
             d="m 2226.19,276.773 -53.75,0 0,-139.226 c 0,-14.609 -1.8,-27.5 -5.39,-38.2111 -3.44,-10.5468 -8.4,-19.3359 -14.69,-26.1718 -6.17,-6.6797 -13.52,-11.7188 -21.76,-14.8047 -8.36,-3.1641 -17.54,-4.7656 -27.46,-4.7656 -7.31,0 -14.41,1.1718 -21.17,3.4374 -6.6,2.2266 -12.62,5.8204 -17.7,10.8204 -5.11,4.9218 -9.26,11.5625 -12.38,19.7265 -3.13,8.1641 -4.69,18.2809 -4.69,30.0509 l 0,159.144 -57.5,0 0,-172.789 c 0,-17.7731 2.7,-33.4371 8.01,-46.5621 5.43,-13.2031 12.62,-24.1797 21.72,-32.6172 C 2028.45,16.3672 2039.04,10 2050.95,5.9375 2062.79,1.99219 2075.44,0 2088.73,0 c 20.89,0 39.57,4.49219 55.62,13.4766 11.95,6.6406 21.37,15.039 28.09,24.8828 0,-11.9141 0,-31.67971 0,-31.67971 l 57.46,0 0,270.09331 -3.71,0" /><path
             id="path30"
             style="fill:#aeacac;fill-opacity:1;fill-rule:nonzero;stroke:none"
             d="m 2339.86,350.836 -53.75,0 0,-257.9454 c 0,-10.8203 0.51,-21.7187 1.4,-32.1875 0.94,-11.0547 4.15,-21.1719 9.42,-30.0781 5.27,-9.1406 13.67,-16.6016 24.84,-22.26562 C 2332.83,2.77344 2348.37,0 2368.14,0 c 5.35,0 12.85,0.585938 22.34,1.95312 9.81,1.32813 18.05,3.82813 24.3,7.38282 l 1.95,1.01566 0,54.3359 -5.66,-3.4375 c -4.73,-2.8516 -10.12,-4.8828 -15.94,-5.9766 -6.05,-1.0937 -11.95,-1.6796 -17.62,-1.6796 -8.75,0 -15.39,1.5624 -19.68,4.6093 -4.46,3.125 -7.66,7.1485 -9.81,12.2657 -2.22,5.3124 -3.59,11.4062 -3.9,18.125 l -0.59,21.8042 c 0,0 0,108.582 0,115.614 6.84,0 71.52,0 71.52,0 l 0,50.761 c 0,0 -64.68,0 -71.52,0 0,6.739 0,74.063 0,74.063 l -3.67,0" /><path
             id="path32"
             style="fill:#aeacac;fill-opacity:1;fill-rule:nonzero;stroke:none"
             d="m 2476.15,378.297 c -7.93,-7.871 -11.92,-17.422 -11.92,-28.399 0,-10.937 3.99,-20.507 11.92,-28.418 7.89,-7.832 17.42,-11.835 28.36,-11.835 10.97,0 20.58,4.003 28.47,11.835 7.85,7.93 11.84,17.481 11.84,28.418 0,10.957 -3.99,20.489 -11.84,28.399 -7.97,7.91 -17.54,11.894 -28.47,11.894 -10.9,0 -20.47,-3.984 -28.36,-11.894" /><path
             id="path34"
             style="fill:#aeacac;fill-opacity:1;fill-rule:nonzero;stroke:none"
             d="m 2529.55,276.773 -53.75,0 0,-270.09331 57.5,0 0,270.09331 -3.75,0" /><path
             id="path36"
             style="fill:#aeacac;fill-opacity:1;fill-rule:nonzero;stroke:none"
             d="m 2793.69,105.938 c -3.91,-10.7427 -9.42,-20.0786 -16.45,-27.6177 -7.07,-7.5781 -15.78,-13.6328 -25.94,-18.0469 -10.19,-4.414 -21.79,-6.6796 -34.61,-6.6796 -12.69,0 -24.37,2.2656 -34.57,6.6796 -10.19,4.4141 -18.94,10.4688 -25.97,18.0469 -6.99,7.5391 -12.54,16.875 -16.41,27.6177 -3.91,10.906 -5.86,22.898 -5.86,35.789 0,12.89 1.95,24.882 5.86,35.742 3.87,10.785 9.42,20.078 16.41,27.664 7.03,7.578 15.7,13.613 25.97,18.105 10.24,4.395 21.88,6.641 34.57,6.641 12.78,0 24.42,-2.246 34.61,-6.641 10.24,-4.492 18.95,-10.508 25.94,-18.105 7.03,-7.504 12.54,-16.879 16.45,-27.664 3.86,-10.86 5.86,-22.852 5.86,-35.742 0,-12.891 -2,-24.883 -5.86,-35.789 z m 55.16,91.023 c -7.43,16.98 -17.62,32.156 -30.48,44.969 -12.73,12.871 -28.08,23.125 -45.39,30.468 -17.42,7.325 -36.36,11.114 -56.29,11.114 -19.88,0 -38.86,-3.789 -56.25,-11.114 -17.34,-7.343 -32.65,-17.597 -45.5,-30.468 -12.82,-12.813 -23.05,-27.989 -30.39,-44.969 -7.31,-16.992 -11.06,-35.543 -11.06,-55.234 0,-19.649 3.75,-38.368 11.06,-55.5161 7.34,-17.1875 17.57,-32.3047 30.5,-44.9609 12.74,-12.6562 28.05,-22.8516 45.39,-30.1562 C 2677.83,3.67188 2696.73,0 2716.69,0 c 19.93,0 38.87,3.67188 56.22,11.0938 17.38,7.3437 32.69,17.5 45.46,30.1562 12.86,12.6562 23.13,27.7734 30.48,44.9609 7.39,17.2271 11.06,35.9061 11.06,55.5161 0,19.652 -3.67,38.242 -11.06,55.234" /><path
             id="path38"
             style="fill:#aeacac;fill-opacity:1;fill-rule:nonzero;stroke:none"
             d="m 2985.61,270.016 c -11.95,-6.7 -21.29,-15.02 -28.12,-24.883 0,11.953 0,31.679 0,31.679 l -57.47,0 0,-270.13231 57.47,0 0,139.22631 c 0,14.727 1.79,27.578 5.43,38.242 3.43,10.586 8.39,19.325 14.64,26.102 6.18,6.719 13.56,11.777 21.8,14.805 8.36,3.203 17.58,4.824 27.42,4.824 7.35,0 14.46,-1.172 21.21,-3.438 6.64,-2.226 12.58,-5.859 17.7,-10.82 5.04,-4.922 9.26,-11.504 12.34,-19.715 3.17,-8.238 4.73,-18.359 4.73,-30 l 0,-159.22631 57.5,0 0,172.82431 c 0,17.691 -2.7,33.363 -8.05,46.527 -5.31,13.223 -12.65,24.16 -21.68,32.617 -9.06,8.516 -19.8,14.825 -31.87,18.868 -11.92,3.984 -24.53,5.996 -37.42,5.996 -20.9,0 -39.65,-4.532 -55.63,-13.496" /><path
             id="path40"
             style="fill:#aeacac;fill-opacity:1;fill-rule:nonzero;stroke:none"
             d="m 3248.85,278.375 c -12.34,-3.457 -23.55,-8.672 -33.2,-15.547 -9.73,-6.992 -17.7,-15.84 -23.67,-26.484 -5.94,-10.703 -9.06,-23.34 -9.06,-37.625 0,-13.164 2.38,-24.414 7.14,-33.399 4.57,-8.984 10.98,-16.523 18.71,-22.382 7.62,-5.704 16.53,-10.391 26.45,-13.829 9.73,-3.398 20.04,-6.367 30.82,-8.98 0.16,-0.082 19.14,-4.223 19.14,-4.223 6.95,-1.601 13.63,-3.75 19.81,-6.445 6.05,-2.578 11.21,-6.102 15.43,-10.5157 3.98,-4.1406 5.82,-9.2578 5.82,-15.7422 0,-4.7656 -1.25,-8.8672 -3.95,-12.5 -2.77,-3.789 -6.48,-7.0312 -10.94,-9.5312 -4.68,-2.5781 -10.08,-4.4922 -16.13,-5.7422 -6.21,-1.1719 -12.34,-1.8359 -18.44,-1.8359 -13.55,0 -25.19,3.0078 -34.53,8.8671 -9.69,6.0938 -18.63,13.2032 -26.52,21.0938 l -2.31,2.4219 -43.12,-35.4688 2.15,-2.8516 c 13.24,-18.0859 28.63,-30.7421 45.66,-37.539 C 3234.91,3.39844 3254.67,0 3276.78,0 c 13.17,0 26.41,1.52344 39.42,4.45312 13.08,3.08594 24.92,8.08598 35.19,14.99998 10.31,6.9531 18.83,16.0157 25.35,26.9922 6.57,11.1719 9.89,24.5703 9.89,40 0,12.6563 -2.04,23.6407 -6.14,32.6247 -4.1,9.024 -9.84,16.723 -16.95,22.973 -7.19,6.168 -15.7,11.25 -25.47,15.074 -9.57,3.75 -19.88,6.953 -30.66,9.61 -0.16,0.039 -20.08,3.867 -20.08,3.867 -7.42,1.41 -14.49,3.594 -21.06,6.484 -6.36,2.734 -11.95,6.445 -16.6,10.899 -4.25,4.101 -6.36,9.375 -6.36,16.238 0,8.183 3.71,14.336 11.17,18.613 8.12,4.668 17.81,7.051 28.9,7.051 11.84,0 21.92,-2.383 29.96,-6.992 8.29,-4.766 15.28,-10.664 20.86,-17.676 l 2.27,-2.824 44.41,33.566 -1.83,2.93 c -9.96,16.035 -23.63,27.558 -40.51,34.453 -16.68,6.758 -34.3,10.176 -52.42,10.176 -12.46,0 -24.96,-1.758 -37.27,-5.137" /><path
             id="path42"
             style="fill:#62b92c;fill-opacity:1;fill-rule:nonzero;stroke:none"
             d="m 717.285,105.938 c -3.887,-10.7427 -9.453,-20.0786 -16.426,-27.6177 -7.05,-7.5781 -15.742,-13.6328 -25.957,-18.0469 -10.175,-4.414 -21.855,-6.6796 -34.57,-6.6796 -12.754,0 -24.375,2.2656 -34.59,6.6796 -10.195,4.4141 -18.945,10.4688 -25.937,18.0469 -7.032,7.5391 -12.578,16.875 -16.465,27.6177 -3.867,10.867 -5.879,22.898 -5.879,35.789 0,12.89 2.012,24.921 5.879,35.742 3.887,10.785 9.433,20.16 16.465,27.664 6.992,7.578 15.722,13.613 25.937,18.105 10.215,4.395 21.875,6.641 34.59,6.641 12.715,0 24.356,-2.246 34.57,-6.641 10.215,-4.492 18.907,-10.527 25.957,-18.105 6.973,-7.504 12.539,-16.879 16.426,-27.664 3.906,-10.86 5.86,-22.891 5.86,-35.742 0,-12.848 -1.954,-24.883 -5.86,-35.789 z m 59.629,245.035 -53.769,0 c 0,0 0.078,-89.102 0.117,-105.801 -8.711,10.566 -20.02,19.414 -33.985,26.055 -17.07,8.164 -35.488,12.285 -54.824,12.285 -20.683,0 -39.805,-3.653 -56.641,-10.821 -16.855,-7.246 -31.445,-17.363 -43.378,-30.019 -11.914,-12.695 -21.211,-27.852 -27.676,-45.004 -6.426,-17.191 -9.668,-36.02 -9.668,-55.941 0,-19.961 3.281,-38.68 9.668,-55.6723 6.465,-16.9922 15.722,-32.1485 27.637,-45 C 546.367,28.1641 560.996,17.9688 577.812,10.7812 594.648,3.59375 613.691,0 634.453,0 c 18.203,0 36.172,3.94531 53.379,11.7969 14.277,6.5625 26.016,15.5078 35.313,26.4453 0,-10.5078 0,-31.56251 0,-31.56251 l 57.5,0 0,344.29331 -3.731,0" /><path
             id="path44"
             style="fill:#62b92c;fill-opacity:1;fill-rule:nonzero;stroke:none"
             d="m 1040.98,105.938 c -3.87,-10.7427 -9.4,-20.0786 -16.43,-27.6177 -7.03,-7.5781 -15.78,-13.6328 -25.956,-18.0469 -10.196,-4.414 -21.836,-6.6796 -34.59,-6.6796 -12.715,0 -24.375,2.2656 -34.609,6.6796 -10.196,4.4141 -18.926,10.4688 -25.899,18.0469 -7.051,7.5391 -12.558,16.875 -16.445,27.6177 -3.867,10.867 -5.84,22.898 -5.84,35.789 0,12.89 1.973,24.921 5.84,35.742 3.887,10.785 9.394,20.16 16.445,27.664 6.973,7.578 15.703,13.613 25.899,18.105 10.234,4.395 21.914,6.641 34.609,6.641 12.754,0 24.394,-2.246 34.59,-6.641 10.176,-4.492 18.926,-10.508 25.956,-18.105 7.03,-7.504 12.56,-16.879 16.43,-27.664 3.9,-10.86 5.9,-22.891 5.9,-35.742 0,-12.891 -2,-24.883 -5.9,-35.789 z m 55.19,91.023 c -7.38,16.98 -17.62,32.156 -30.43,44.969 -12.85,12.871 -28.1,23.125 -45.47,30.468 -17.4,7.325 -36.305,11.114 -56.266,11.114 -19.961,0 -38.887,-3.789 -56.231,-11.114 -17.382,-7.343 -32.675,-17.597 -45.468,-30.468 -12.852,-12.813 -23.047,-27.989 -30.41,-44.969 -7.344,-16.914 -11.075,-35.543 -11.075,-55.234 0,-19.649 3.731,-38.368 11.075,-55.5161 C 839.219,69.0234 849.453,53.9062 862.305,41.25 875.098,28.5938 890.391,18.3984 907.773,11.0938 925.117,3.67188 944.023,0 964.004,0 c 19.961,0 38.906,3.67188 56.266,11.0938 17.33,7.3437 32.62,17.5 45.47,30.1562 12.83,12.6562 23.05,27.7734 30.43,44.9609 7.35,17.2271 11.06,35.9061 11.06,55.5161 0,19.652 -3.71,38.242 -11.06,55.234" /><path
             id="path46"
             style="fill:#62b92c;fill-opacity:1;fill-rule:nonzero;stroke:none"
             d="m 1200.88,350.836 -53.75,0 0,-257.9454 c 0,-10.9375 0.49,-21.7968 1.39,-32.1875 1.02,-11.0547 4.14,-21.1719 9.4,-30.0781 5.33,-9.1406 13.73,-16.6016 24.88,-22.26562 C 1193.85,2.77344 1209.46,0 1229.13,0 c 5.37,0 12.87,0.585938 22.4,1.95312 9.84,1.32813 18.03,3.82813 24.3,7.38282 l 1.93,1.01566 0,54.3359 -5.67,-3.4375 c -4.72,-2.8516 -10.05,-4.8828 -15.95,-5.9766 -6,-1.0937 -11.9,-1.6796 -17.62,-1.6796 -8.73,0 -15.35,1.5624 -19.67,4.6093 -4.43,3.125 -7.65,7.1094 -9.82,12.2657 -2.21,5.3124 -3.56,11.4453 -3.85,18.125 l -0.55,21.8042 c 0,0 0,108.582 0,115.614 6.72,0 71.47,0 71.47,0 l 0,50.761 c 0,0 -64.75,0 -71.47,0 0,6.739 0,74.063 0,74.063 l -3.75,0" /><path
             id="path48"
             style="fill:#62b92c;fill-opacity:1;fill-rule:nonzero;stroke:none"
             d="M 177.266,141.922 C 177.266,92.9297 137.559,53.2422 88.6133,53.2422 39.6875,53.2422 0,92.9297 0,141.922 c 0,48.984 39.6875,88.66 88.6133,88.66 48.9457,0 88.6527,-39.676 88.6527,-88.66" /></g></g></g></g></svg>